<?xml version="1.0" standalone="no"?><!-- Generator: Gravit.io --><svg xmlns="http://www.w3.org/2000/svg" xmlns:xlink="http://www.w3.org/1999/xlink" style="isolation:isolate" viewBox="0 0 48 48" width="48" height="48"><defs><clipPath id="_clipPath_1bekYsRCt1s4ylPeGBG7weSBsfJyjhZh"><rect width="48" height="48"/></clipPath></defs><g clip-path="url(#_clipPath_1bekYsRCt1s4ylPeGBG7weSBsfJyjhZh)"><g><path d=" M 24.008 5.5 L 34.729 21.901 C 41.597 32.407 34.374 43.768 24.001 43.768 C 13.628 43.768 6.394 32.403 13.268 21.904 L 24.008 5.5 Z " fill-rule="evenodd" fill="rgb(76,144,232)" vector-effect="non-scaling-stroke" stroke-width="2.871" stroke="rgb(9,68,145)" stroke-linejoin="miter" stroke-linecap="butt" stroke-miterlimit="4"/></g><g><path d=" M 27.824 24.573 C 21.962 22.182 18.886 28.289 19.864 31.143 C 21.992 37.35 30.015 38.904 35.94 28.564 C 35.94 28.564 36.003 29.812 36.065 30.406 C 36.861 37.945 30.519 42.744 24.093 42.651 C 17.667 42.557 15.705 40.061 13.811 37.189 C 10.739 32.528 11.506 24.935 15.636 21.383 C 20.35 17.488 25.54 19.568 27.824 24.573 Z " fill-rule="evenodd" fill="rgb(9,68,145)"/></g><g><path d=" M 24.142 22.315 C 17.576 22.475 16.33 30.041 18.149 33.282 C 20.677 37.788 24.513 38.654 29.763 36.991 C 26.766 40.25 20.614 41.112 16.435 36.457 C 13.56 33.254 13.308 28.784 15.304 25.05 C 17.299 21.317 21.278 20.279 24.142 22.315 Z " fill-rule="evenodd" fill="rgb(131,184,249)"/></g></g></svg>